<?xml version="1.0" encoding="UTF-8" standalone="no"?>
<!DOCTYPE svg PUBLIC "-//W3C//DTD SVG 1.1//EN"
 "http://www.w3.org/Graphics/SVG/1.1/DTD/svg11.dtd">
<!-- Generated by graphviz version 2.44.0 (0)
 -->
<!-- Title: pipeline_dag Pages: 1 -->
<svg width="486pt" height="558pt"
 viewBox="0.00 0.00 486.17 557.80" xmlns="http://www.w3.org/2000/svg" xmlns:xlink="http://www.w3.org/1999/xlink">
<g id="graph0" class="graph" transform="scale(1 1) rotate(0) translate(4 553.8)">
<title>pipeline_dag</title>
<polygon fill="white" stroke="transparent" points="-4,4 -4,-553.8 482.17,-553.8 482.17,4 -4,4"/>
<!-- v0 -->
<g id="node1" class="node">
<title>v0</title>
<ellipse fill="black" stroke="black" cx="256.84" cy="-531.2" rx="3.6" ry="3.6"/>
<text text-anchor="middle" x="191.24" y="-538.6" font-family="Times-Roman" font-size="14.00">Channel.fromPath</text>
</g>
<!-- v1 -->
<g id="node2" class="node">
<title>v1</title>
<ellipse fill="none" stroke="black" cx="256.84" cy="-487.1" rx="3.5" ry="3.5"/>
<text text-anchor="middle" x="225.84" y="-494.4" font-family="Times-Roman" font-size="14.00">splitCsv</text>
</g>
<!-- v0&#45;&gt;v1 -->
<g id="edge1" class="edge">
<title>v0&#45;&gt;v1</title>
<path fill="none" stroke="black" d="M256.84,-527.44C256.84,-522.15 256.84,-510.28 256.84,-500.95"/>
<polygon fill="black" stroke="black" points="260.34,-500.93 256.84,-490.93 253.34,-500.93 260.34,-500.93"/>
</g>
<!-- v2 -->
<g id="node3" class="node">
<title>v2</title>
<ellipse fill="none" stroke="black" cx="256.84" cy="-443.1" rx="3.5" ry="3.5"/>
<text text-anchor="middle" x="237.84" y="-450.4" font-family="Times-Roman" font-size="14.00">map</text>
</g>
<!-- v1&#45;&gt;v2 -->
<g id="edge2" class="edge">
<title>v1&#45;&gt;v2</title>
<path fill="none" stroke="black" d="M256.84,-483.34C256.84,-478.07 256.84,-466.23 256.84,-456.92"/>
<polygon fill="black" stroke="black" points="260.34,-456.92 256.84,-446.92 253.34,-456.92 260.34,-456.92"/>
</g>
<!-- v3 -->
<g id="node4" class="node">
<title>v3</title>
<ellipse fill="none" stroke="black" cx="196.84" cy="-385.1" rx="3.5" ry="3.5"/>
<text text-anchor="middle" x="177.84" y="-392.4" font-family="Times-Roman" font-size="14.00">map</text>
</g>
<!-- v2&#45;&gt;v3 -->
<g id="edge3" class="edge">
<title>v2&#45;&gt;v3</title>
<path fill="none" stroke="black" d="M253.42,-441.82C244.09,-440.88 217.97,-436.93 204.84,-421.6 199.46,-415.33 197.49,-406.21 196.85,-398.78"/>
<polygon fill="black" stroke="black" points="200.35,-398.62 196.65,-388.69 193.35,-398.75 200.35,-398.62"/>
<text text-anchor="middle" x="245.84" y="-410.4" font-family="Times-Roman" font-size="14.00">samples_ch</text>
</g>
<!-- v6 -->
<g id="node8" class="node">
<title>v6</title>
<ellipse fill="none" stroke="black" cx="315.84" cy="-385.1" rx="3.5" ry="3.5"/>
<text text-anchor="middle" x="295.84" y="-392.4" font-family="Times-Roman" font-size="14.00">filter</text>
</g>
<!-- v2&#45;&gt;v6 -->
<g id="edge7" class="edge">
<title>v2&#45;&gt;v6</title>
<path fill="none" stroke="black" d="M259.94,-440.77C266.27,-437.93 280.95,-430.81 290.84,-421.6 298.4,-414.56 305.03,-404.88 309.56,-397.41"/>
<polygon fill="black" stroke="black" points="312.66,-399.03 314.55,-388.6 306.58,-395.57 312.66,-399.03"/>
<text text-anchor="middle" x="343.84" y="-410.4" font-family="Times-Roman" font-size="14.00">samples_ch</text>
</g>
<!-- v4 -->
<g id="node5" class="node">
<title>v4</title>
<ellipse fill="none" stroke="black" cx="148.84" cy="-312.6" rx="148.67" ry="18"/>
<text text-anchor="middle" x="148.84" y="-308.9" font-family="Times-Roman" font-size="14.00">VCF2MAF_SOMATIC_WORKING</text>
</g>
<!-- v3&#45;&gt;v4 -->
<g id="edge4" class="edge">
<title>v3&#45;&gt;v4</title>
<path fill="none" stroke="black" d="M195.24,-381.75C190.74,-375.14 177.55,-355.77 166.37,-339.36"/>
<polygon fill="black" stroke="black" points="168.96,-336.94 160.44,-330.64 163.18,-340.88 168.96,-336.94"/>
<text text-anchor="middle" x="220.84" y="-352.4" font-family="Times-Roman" font-size="14.00">somatic_ch</text>
</g>
<!-- v10 -->
<g id="node6" class="node">
<title>v10</title>
<ellipse fill="none" stroke="black" cx="124.84" cy="-225.6" rx="3.5" ry="3.5"/>
<text text-anchor="middle" x="105.84" y="-232.9" font-family="Times-Roman" font-size="14.00">map</text>
</g>
<!-- v4&#45;&gt;v10 -->
<g id="edge5" class="edge">
<title>v4&#45;&gt;v10</title>
<path fill="none" stroke="black" d="M143.98,-294.4C139.36,-278.04 132.52,-253.82 128.39,-239.19"/>
<polygon fill="black" stroke="black" points="131.67,-237.91 125.58,-229.24 124.93,-239.81 131.67,-237.91"/>
</g>
<!-- v5 -->
<g id="node7" class="node">
<title>v5</title>
<ellipse fill="black" stroke="black" cx="147.84" cy="-225.6" rx="1.8" ry="1.8"/>
</g>
<!-- v4&#45;&gt;v5 -->
<g id="edge6" class="edge">
<title>v4&#45;&gt;v5</title>
<path fill="none" stroke="black" d="M148.63,-294.4C148.44,-277.52 148.14,-252.26 147.97,-237.82"/>
<polygon fill="black" stroke="black" points="151.47,-237.64 147.85,-227.68 144.47,-237.72 151.47,-237.64"/>
</g>
<!-- v11 -->
<g id="node13" class="node">
<title>v11</title>
<ellipse fill="none" stroke="black" cx="142.84" cy="-142.1" rx="3.5" ry="3.5"/>
<text text-anchor="middle" x="116.84" y="-149.4" font-family="Times-Roman" font-size="14.00">collect</text>
</g>
<!-- v10&#45;&gt;v11 -->
<g id="edge12" class="edge">
<title>v10&#45;&gt;v11</title>
<path fill="none" stroke="black" d="M125.44,-221.89C127.7,-211.65 135.81,-174.92 140.11,-155.44"/>
<polygon fill="black" stroke="black" points="143.55,-156.1 142.29,-145.58 136.72,-154.59 143.55,-156.1"/>
</g>
<!-- v7 -->
<g id="node9" class="node">
<title>v7</title>
<ellipse fill="none" stroke="black" cx="320.84" cy="-312.6" rx="3.5" ry="3.5"/>
<text text-anchor="middle" x="332.84" y="-319.9" font-family="Times-Roman" font-size="14.00">map</text>
</g>
<!-- v6&#45;&gt;v7 -->
<g id="edge8" class="edge">
<title>v6&#45;&gt;v7</title>
<path fill="none" stroke="black" d="M316.03,-381.42C316.66,-372.52 318.71,-343.54 319.92,-326.47"/>
<polygon fill="black" stroke="black" points="323.43,-326.5 320.65,-316.28 316.45,-326.01 323.43,-326.5"/>
</g>
<!-- v8 -->
<g id="node10" class="node">
<title>v8</title>
<ellipse fill="none" stroke="black" cx="322.84" cy="-225.6" rx="155.17" ry="18"/>
<text text-anchor="middle" x="322.84" y="-221.9" font-family="Times-Roman" font-size="14.00">VCF2MAF_GERMLINE_WORKING</text>
</g>
<!-- v7&#45;&gt;v8 -->
<g id="edge9" class="edge">
<title>v7&#45;&gt;v8</title>
<path fill="none" stroke="black" d="M320.9,-308.77C321.1,-300.28 321.71,-274.35 322.2,-253.87"/>
<polygon fill="black" stroke="black" points="325.7,-253.85 322.43,-243.77 318.7,-253.68 325.7,-253.85"/>
<text text-anchor="middle" x="364.34" y="-265.4" font-family="Times-Roman" font-size="14.00">germline_ch</text>
</g>
<!-- v12 -->
<g id="node11" class="node">
<title>v12</title>
<ellipse fill="none" stroke="black" cx="209.84" cy="-167.1" rx="3.5" ry="3.5"/>
<text text-anchor="middle" x="190.84" y="-174.4" font-family="Times-Roman" font-size="14.00">map</text>
</g>
<!-- v8&#45;&gt;v12 -->
<g id="edge10" class="edge">
<title>v8&#45;&gt;v12</title>
<path fill="none" stroke="black" d="M289.54,-207.95C266.7,-196.53 237.74,-182.05 221.77,-174.07"/>
<polygon fill="black" stroke="black" points="223.22,-170.88 212.71,-169.54 220.09,-177.14 223.22,-170.88"/>
</g>
<!-- v9 -->
<g id="node12" class="node">
<title>v9</title>
<ellipse fill="black" stroke="black" cx="322.84" cy="-167.1" rx="1.8" ry="1.8"/>
</g>
<!-- v8&#45;&gt;v9 -->
<g id="edge11" class="edge">
<title>v8&#45;&gt;v9</title>
<path fill="none" stroke="black" d="M322.84,-207.34C322.84,-198.25 322.84,-187.37 322.84,-179.37"/>
<polygon fill="black" stroke="black" points="326.34,-179.1 322.84,-169.1 319.34,-179.1 326.34,-179.1"/>
</g>
<!-- v13 -->
<g id="node15" class="node">
<title>v13</title>
<ellipse fill="none" stroke="black" cx="191.84" cy="-117.1" rx="3.5" ry="3.5"/>
<text text-anchor="middle" x="165.84" y="-124.4" font-family="Times-Roman" font-size="14.00">collect</text>
</g>
<!-- v12&#45;&gt;v13 -->
<g id="edge14" class="edge">
<title>v12&#45;&gt;v13</title>
<path fill="none" stroke="black" d="M208.87,-163.52C206.57,-157.39 200.66,-141.64 196.45,-130.41"/>
<polygon fill="black" stroke="black" points="199.69,-129.07 192.9,-120.93 193.13,-131.52 199.69,-129.07"/>
</g>
<!-- v14 -->
<g id="node14" class="node">
<title>v14</title>
<ellipse fill="none" stroke="black" cx="154.84" cy="-58.6" rx="92.88" ry="18"/>
<text text-anchor="middle" x="154.84" y="-54.9" font-family="Times-Roman" font-size="14.00">MERGE_ALL_MAFS</text>
</g>
<!-- v11&#45;&gt;v14 -->
<g id="edge13" class="edge">
<title>v11&#45;&gt;v14</title>
<path fill="none" stroke="black" d="M143.24,-138.39C144.42,-130.38 147.98,-106.18 150.85,-86.7"/>
<polygon fill="black" stroke="black" points="154.32,-87.17 152.31,-76.77 147.39,-86.15 154.32,-87.17"/>
</g>
<!-- v16 -->
<g id="node16" class="node">
<title>v16</title>
<ellipse fill="black" stroke="black" cx="142.84" cy="-1.8" rx="1.8" ry="1.8"/>
</g>
<!-- v14&#45;&gt;v16 -->
<g id="edge16" class="edge">
<title>v14&#45;&gt;v16</title>
<path fill="none" stroke="black" d="M151.11,-40.56C149.18,-31.76 146.89,-21.3 145.2,-13.61"/>
<polygon fill="black" stroke="black" points="148.61,-12.78 143.05,-3.76 141.77,-14.28 148.61,-12.78"/>
</g>
<!-- v15 -->
<g id="node17" class="node">
<title>v15</title>
<ellipse fill="black" stroke="black" cx="167.84" cy="-1.8" rx="1.8" ry="1.8"/>
</g>
<!-- v14&#45;&gt;v15 -->
<g id="edge17" class="edge">
<title>v14&#45;&gt;v15</title>
<path fill="none" stroke="black" d="M158.88,-40.56C160.97,-31.76 163.45,-21.3 165.27,-13.61"/>
<polygon fill="black" stroke="black" points="168.71,-14.3 167.61,-3.76 161.89,-12.68 168.71,-14.3"/>
</g>
<!-- v13&#45;&gt;v14 -->
<g id="edge15" class="edge">
<title>v13&#45;&gt;v14</title>
<path fill="none" stroke="black" d="M190.25,-113.67C186.94,-108.62 179,-96.5 171.48,-85.01"/>
<polygon fill="black" stroke="black" points="174.29,-82.92 165.89,-76.48 168.44,-86.76 174.29,-82.92"/>
</g>
</g>
</svg>
